<svg width="176" height="32" viewBox="0 0 176 32" fill="none" xmlns="http://www.w3.org/2000/svg">
<path d="M81.2725 15.0027V31.5771H85.9914V16.1375C85.9914 14.8335 87.0487 13.7762 88.3526 13.7762H93.2302V9.11719H87.1615C83.9086 9.11719 81.2725 11.7498 81.2725 15.0027Z" fill="#114455"/>
<path d="M20.1445 8.62744C14.7454 8.62744 10.5727 12.5675 10.5727 17.4838V24.7155C10.5551 25.0926 10.3824 25.4733 10.1745 25.8081C9.63877 26.6785 8.74714 27.1719 7.72864 27.1719H7.68282C6.67489 27.1719 5.74802 26.6327 5.24758 25.7587L5.15595 25.5966C4.95507 25.2477 4.84934 24.853 4.84934 24.4512V23.697H4.85286V9.12436H0.00352423V21.4803H0V24.1587C0 25.4874 0.352423 26.7948 1.01498 27.9367L1.09251 28.0741C2.43524 30.3966 4.9304 31.8098 7.61586 31.8486C7.65463 31.8486 7.69339 31.8486 7.73216 31.8486C10.3718 31.8486 12.7683 30.5129 14.1568 28.2644C14.6044 27.5385 14.9427 26.742 15.133 25.9173C15.2564 25.3816 15.2916 24.8283 15.2916 24.2785V18.1147C15.2916 16.2045 16.215 12.9446 20.1445 12.9446C22.7524 12.9446 24.4582 14.8759 24.4582 18.1147V31.5526H29.2687V17.4838C29.2687 12.2222 25.089 8.62744 20.1445 8.62744Z" fill="#114455"/>
<path d="M42.379 26.6046L36.4125 9.12793H31.3799L38.816 29.3464C39.3623 30.8301 40.7755 31.8169 42.3579 31.8169C43.9367 31.8169 45.3499 30.8337 45.8962 29.3535L53.3781 9.12793H48.2997L42.379 26.6046Z" fill="#114455"/>
<path d="M66.0228 8.62744C59.369 8.62744 54.9673 13.66 54.9673 20.3138C54.9673 26.9217 59.3726 32.0001 66.0228 32.0001C72.673 32.0001 77.0783 26.9217 77.0783 20.3138C77.0783 13.6636 72.673 8.62744 66.0228 8.62744ZM66.0228 27.5948C62.4281 27.5948 59.6862 24.4935 59.6862 20.3138C59.6862 16.0882 62.4281 13.0327 66.0228 13.0327C69.6633 13.0327 72.3594 16.0882 72.3594 20.3138C72.3594 24.4935 69.6633 27.5948 66.0228 27.5948Z" fill="#114455"/>
<path d="M2.41144 4.8141H2.45021C3.77884 4.8141 4.85726 3.73568 4.85726 2.40705C4.85726 1.07841 3.77884 0 2.45021 0H2.41144C1.08281 0 0.00439453 1.07841 0.00439453 2.40705C0.00439453 3.73568 1.08281 4.8141 2.41144 4.8141Z" fill="#114455"/>
<path d="M99.5242 4.8141H99.563C100.892 4.8141 101.97 3.73568 101.97 2.40705C101.97 1.07841 100.892 0 99.563 0H99.5242C98.1956 0 97.1172 1.07841 97.1172 2.40705C97.1172 3.73568 98.1956 4.8141 99.5242 4.8141Z" fill="#114455"/>
<path d="M173.061 26.8193H173.022C171.693 26.8193 170.615 27.8978 170.615 29.2264C170.615 30.555 171.693 31.6334 173.022 31.6334H173.061C174.389 31.6334 175.468 30.555 175.468 29.2264C175.468 27.8978 174.389 26.8193 173.061 26.8193Z" fill="#114455"/>
<path d="M157.413 8.62744C154.552 8.62744 152.046 9.7411 150.312 11.5103C148.624 9.69528 146.171 8.62744 143.482 8.62744C138.083 8.62744 133.91 12.5675 133.91 17.4803V31.549H138.629V18.1147C138.629 16.2045 139.552 12.9446 143.482 12.9446C146.09 12.9446 147.796 14.8759 147.796 18.1147V31.5526H147.841H152.56H152.606V17.4838C152.606 17.4556 152.603 17.431 152.603 17.4028C152.818 15.4926 153.938 12.9446 157.413 12.9446C160.021 12.9446 161.727 14.8759 161.727 18.1147V31.5526H166.537V17.4838C166.537 12.2222 162.358 8.62744 157.413 8.62744Z" fill="#114455"/>
<path d="M119.75 8.58154C113.294 8.58154 109.167 13.5472 109.146 20.3525H109.142V23.5454C109.142 24.3666 108.85 25.1666 108.321 25.7974C107.655 26.5904 106.679 27.045 105.643 27.0485H105.639C104.603 27.0485 103.627 26.5939 102.957 25.7974C102.425 25.1666 102.136 24.3666 102.136 23.5419V16.9798H102.132V9.11018H97.3535V23.6476H97.3606C97.3852 25.5578 98.0725 27.4115 99.3095 28.8776C100.888 30.7525 103.197 31.8238 105.643 31.8238H105.65C108.102 31.8203 110.411 30.7419 111.986 28.867C112.021 28.8247 112.053 28.7754 112.088 28.7296C113.988 30.7771 116.719 31.9507 120.021 31.9507C123.887 31.9507 127.302 30.1956 128.874 27.4573L125.28 25.2547C124.335 26.6467 122.672 27.8168 120.201 27.8168C116.606 27.8168 114.27 25.6141 113.773 21.7939H129.505C130.358 14.3789 126.897 8.58154 119.75 8.58154ZM113.815 18.2908C114.4 14.8758 116.511 12.6732 119.792 12.6732C123.479 12.6732 125.23 15.5489 125.23 18.2908H113.815Z" fill="#114455"/>
</svg>
