<?xml version="1.0" ?><!DOCTYPE svg  PUBLIC '-//W3C//DTD SVG 1.1//EN'  'http://www.w3.org/Graphics/SVG/1.1/DTD/svg11.dtd'><svg enable-background="new 0 0 512 512" height="512px" id="Layer_1" version="1.1" viewBox="0 0 512 512" width="512px" xml:space="preserve" xmlns="http://www.w3.org/2000/svg" xmlns:xlink="http://www.w3.org/1999/xlink"><g><path d="M400.122,492c-3.291,0-6.597-0.687-9.681-2.082L256,429.075l-134.441,60.843   c-3.083,1.396-6.39,2.082-9.68,2.082c-4.736,0-9.439-1.422-13.405-4.201c-6.72-4.711-10.253-12.575-9.223-20.528l18.425-142.177   L6.161,220.521c-5.679-5.85-7.611-14.216-5.044-21.838c2.567-7.623,9.228-13.295,17.385-14.807l145.83-27.026l71.702-125.474   C240.043,24.358,247.693,20,256,20c8.307,0,15.956,4.358,19.968,11.377l71.702,125.474l145.83,27.026   c8.156,1.512,14.816,7.184,17.383,14.807c2.568,7.622,0.635,15.988-5.043,21.838L404.324,325.094l18.426,142.177   c1.03,7.953-2.503,15.817-9.224,20.528C409.562,490.578,404.857,492,400.122,492z" fill="#022F32"/><polygon fill="#EE514A" points="256,42 332.866,176.509 489.198,205.481 380.372,317.585 400.124,470 256,404.775 111.876,470    131.628,317.585 22.802,205.481 179.134,176.509  "/></g></svg>